# AST/ASF file generated using VICON BodyLanguage
# -----------------------------------------------
:version 1.10
:name VICON
:units
  mass 1.0
  length 0.45
  angle deg
:documentation
   .ast/.asf automatically generated from VICON data using
   VICON BodyBuilder and BodyLanguage model FoxedUp or BRILLIANT.MOD
:root
   order TX TY TZ RX RY RZ
   axis XYZ
   position 0 0 0  
   orientation 0 0 0 
:bonedata
  begin
     id 1 
     name lhipjoint
     direction 0.573633 -0.743009 0.344793 
     length 2.46257 
     axis 0 0 0  XYZ
  end
  begin
     id 2 
     name lfemur
     direction 0.34202 -0.939693 0  
     length 7.3842  
     axis 0 0 20  XYZ
    dof rx ry rz
    limits (-160.0 20.0)
           (-70.0 70.0)
           (-60.0 70.0)
  end
  begin
     id 3 
     name ltibia
     direction 0.34202 -0.939693 0   
     length 7.50407   
     axis 0 0 20   XYZ
    dof rx
    limits (-10.0 170.0)
  end
  begin
     id 4 
     name lfoot
     direction 0.110749 -0.304281 0.946123   
     length 1.95925   
     axis -90 7.62852e-016 20   XYZ
    dof rx rz
    limits (-45.0 90.0)
           (-70.0 20.0)
  end
  begin
     id 5 
     name ltoes
     direction 1.53554e-011 -4.21843e-011 1   
     length 0.978318   
     axis -90 7.62852e-016 20   XYZ
    dof rx
    limits (-90.0 20.0)
  end
  begin
     id 6 
     name rhipjoint
     direction -0.488109 -0.791693 0.367385   
     length 2.31113  
     axis 0 0 0  XYZ 
  end
  begin
     id 7 
     name rfemur
     direction -0.34202 -0.939693 0   
     length 7.40965   
     axis 0 0 -20   XYZ
    dof rx ry rz
    limits (-160.0 20.0)
           (-70.0 70.0)
           (-70.0 60.0)
  end
  begin
     id 8 
     name rtibia
     direction -0.34202 -0.939693 0   
     length 7.55548   
     axis 0 0 -20   XYZ
    dof rx
    limits (-10.0 170.0)
 end
 begin
     id 9 
     name rfoot
     direction -0.127594 -0.350561 0.927808   
     length 2.07199  
     axis -90 -7.62852e-016 -20   XYZ
    dof rx rz
    limits (-45.0 90.0)
           (-20.0 70.0)
  end
  begin
     id 10 
     name rtoes
     direction -1.53542e-011 -4.21909e-011 1   
     length 1.02667   
     axis -90 -7.62852e-016 -20   XYZ
    dof rx
    limits (-90.0 20.0)
  end
  begin
     id 11 
     name lowerback
     direction -0.0103342 0.997298 -0.0727278   
     length 2.02836   
     axis 0 0 0   XYZ
    dof rx ry rz
    limits (-20.0 45.0)
           (-30.0 30.0)
           (-30.0 30.0)
  end
  begin
     id 12 
     name upperback
     direction 0.0171146 0.999786 -0.011606   
     length 2.03179   
     axis 0 0 0   XYZ
    dof rx ry rz
    limits (-20.0 45.0)
           (-30.0 30.0)
           (-30.0 30.0)
  end
  begin
     id 13 
     name thorax
     direction 0.0216927 0.999513 0.0224343   
     length 2.03882   
     axis 0 0 0   XYZ
    dof rx ry rz
    limits (-20.0 45.0)
           (-30.0 30.0)
           (-30.0 30.0)
  end
  begin
     id 14 
     name lowerneck
     direction 0.000989287 0.993907 0.110221   
     length 1.75428   
     axis 0 0 0   XYZ
    dof rx ry rz
    limits (-20.0 45.0)
           (-30.0 30.0)
           (-30.0 30.0)
  end
  begin
     id 15 
     name upperneck
     direction -0.0172474 0.994813 -0.100253   
     length 1.77058   
     axis 0 0 0   XYZ
    dof rx ry rz
    limits (-20.0 45.0)
           (-30.0 30.0)
           (-30.0 30.0)
  end
  begin
     id 16
     name head
     direction -0.00486455 0.99894 -0.0457663  
     length 1.77427  
     axis 0 0 0   XYZ
    dof rx ry rz
    limits (-20.0 45.0)
           (-30.0 30.0)
           (-30.0 30.0)
  end
  begin
     id 17 
     name lclavicle
     direction 0.927314 0.333734 -0.169441  
     length 3.97584  
     axis 0 0 0   XYZ
    dof ry rz
    limits (-20.0 10.0)
           (0.0 20.0)
  end
  begin
     id 18 
     name lhumerus
     direction 1 -4.48965e-011 -3.25313e-028   
     length 4.76468   
     axis 180 -30 -90   XYZ
    dof rx ry rz
    limits (-60.0 90.0)
           (-90.0 90.0)
           (-90.0 90.0)
  end
  begin
     id 19
     name lradius
     direction 1 -4.48969e-011 -2.8465e-028   
     length 3.52712   
     axis -180 -30 -90   XYZ
    dof rx
    limits (-10.0 170.0)
  end
  begin
     id 20
     name lwrist
     direction 1 -4.4896e-011 -7.78665e-028   
     length 1.76356   
     axis 1.91374e-015 90 90   XYZ
    dof ry
    limits (-180.0 0.0)
 end
  begin
     id 21 
     name lhand
     direction 1 -4.48959e-011 -1.55733e-027   
     length 0.859564   
     axis 9.9371e-016 90 90   XYZ
    dof rx rz
    limits (-90.0 90.0)
           (-45.0 45.0)
  end
  begin
     id 22 
     name lfingers
     direction 1 -4.48965e-011 -3.11466e-027   
     length 0.693002   
     axis 1.98742e-015 90 90   XYZ
    dof rx
    limits (0.0 90.0)
  end
  begin
     id 23
     name lthumb
     direction 0.707107 -6.34948e-011 0.707107   
     length 0.995017   
     axis -90 45 2.85299e-015   XYZ
    dof rx rz
    limits (-45.0 45.0)
           (-45.0 45.0)
  end
  begin
     id 24 
     name rclavicle
     direction -0.899388 0.348209 -0.264294   
     length 3.68366  
     axis 0 0 0   XYZ 
    dof ry rz
    limits (-10.0 20.0)
           (-20.0 0.0)
  end
  begin
     id 25 
     name rhumerus
     direction -1 -4.48965e-011 -3.01536e-027  
     length 4.90577   
     axis 180 30 90   XYZ
    dof rx ry rz
    limits (-90.0 60.0)
           (-90.0 90.0)
           (-90.0 90.0)
  end
  begin
     id 26 
     name rradius
     direction -1 -4.48966e-011 3.93291e-027   
     length 3.42692   
     axis -180 30 90   XYZ
    dof rx
    limits (-10.0 170.0)
  end
  begin
     id 27 
     name rwrist
     direction -1 -4.48969e-011 -7.78665e-028   
     length 1.71346   
     axis 1.91374e-015 -90 -90   XYZ
    dof ry
    limits (-180.0 0.0)
  end
  begin
     id 28
     name rhand
     direction -1 -4.48967e-011 -1.55733e-027   
     length 0.740957   
     axis 9.9371e-016 -90 -90   XYZ
    dof rx rz
    limits (-90.0 90.0)
           (-45.0 45.0)
  end
  begin
     id 29
     name rfingers
     direction -1 -4.48949e-011 -3.11466e-027   
     length 0.597378   
     axis 1.98742e-015 -90 -90   XYZ
    dof rx
    limits (0.0 90.0)
  end
  begin
     id 30
     name rthumb
     direction -0.707107 -6.34931e-011 0.707107   
     length 0.857719   
     axis -90 -45 -2.85299e-015   XYZ
    dof rx rz
    limits (-45.0 45.0)
           (-45.0 45.0)
  end
:hierarchy
  begin
    root lhipjoint rhipjoint lowerback
    lhipjoint lfemur
    lfemur ltibia
    ltibia lfoot
    lfoot ltoes
    rhipjoint rfemur
    rfemur rtibia
    rtibia rfoot
    rfoot rtoes
    lowerback upperback
    upperback thorax
    thorax lowerneck lclavicle rclavicle
    lowerneck upperneck
    upperneck head
    lclavicle lhumerus
    lhumerus lradius
    lradius lwrist
    lwrist lhand lthumb
    lhand lfingers
    rclavicle rhumerus
    rhumerus rradius
    rradius rwrist
    rwrist rhand rthumb
    rhand rfingers
  end

#!OML:ASF E:\I on waltz\AllaLogoMonkeySwing\Project 1\Capture day 1\Session 1\Subject1.ASF
:FULLY-SPECIFIED
:DEGREES
384
root 1.69704 17.7556 6.49375 -1.51836 -2.73155 357.867
lowerback 15.3968 0.97829 -3.66344
upperback 2.07478 0.795661 1.65256
thorax -6.49906 0.495674 3.67503
lowerneck -10.791 3.5425 1.07941
upperneck 16.7922 5.39108 -4.03634
head 7.05716 2.30514 -0.981446
rclavicle 4.69629e-015 -2.59911e-014
rhumerus -29.0562 -16.0776 -76.1188
rradius 38.2661
rwrist 4.59306
rhand -6.74424 -39.7331
rfingers 7.12502
rthumb 19.1168 -68.8136
lclavicle 4.69629e-015 -2.59911e-014
lhumerus -41.8244 21.5529 68.7199
lradius 47.1633
lwrist 6.68337
lhand -6.32059 -9.76444
lfingers 7.12502
lthumb 19.5242 19.2753
rfemur -15.459 -0.969817 10.0956
rtibia 32.1701
rfoot -12.2154 -10.4144
rtoes 8.26735
lfemur -1.45621 1.06865 -12.5072
ltibia 19.6051
lfoot -14.6097 2.88304
ltoes -36.062
385
root 1.68221 17.7793 6.39611 -1.61844 -2.9453 357.888
lowerback 15.347 1.15554 -3.76246
upperback 2.06062 1.00929 1.57238
thorax -6.50658 0.601697 3.60098
lowerneck -10.8213 3.3857 0.898607
upperneck 16.7714 5.17504 -3.85468
head 7.03996 2.20615 -0.913474
rclavicle -7.72775e-015 2.87244e-014
rhumerus -29.1879 -16.6536 -75.7539
rradius 37.4925
rwrist 4.61498
rhand -5.96394 -40.3252
rfingers 7.12502
rthumb 19.867 -69.3298
lclavicle -7.72775e-015 2.87244e-014
lhumerus -42.4199 21.8581 67.9666
lradius 47.2689
lwrist 8.18606
lhand -7.61213 -9.73654
lfingers 7.12502
lthumb 18.282 19.4243
rfemur -15.2329 -1.49588 10.3595
rtibia 35.3382
rfoot -12.7687 -10.5128
rtoes 8.25474
lfemur -1.14491 0.908554 -12.4747
ltibia 18.6169
lfoot -13.9053 2.94969
ltoes -36.0433
386
root 1.66383 17.7971 6.30096 -1.65797 -3.05638 357.986
lowerback 15.1752 1.31365 -3.91276
upperback 2.0364 1.19312 1.47962
thorax -6.45567 0.693383 3.54978
lowerneck -10.8261 3.24383 0.750841
upperneck 16.7395 4.96463 -3.62678
head 7.01509 2.11653 -0.835885
rclavicle 2.72087e-015 -3.58806e-014
rhumerus -29.4041 -17.3274 -75.3023
rradius 36.5863
rwrist 4.05456
rhand -6.31634 -39.8883
rfingers 7.12502
rthumb 19.5282 -68.9276
lclavicle 2.72087e-015 -3.58806e-014
lhumerus -42.9638 22.2308 67.2709
lradius 47.3077
lwrist 9.60558
lhand -8.68528 -9.84008
lfingers 7.12502
lthumb 17.2494 19.4144
rfemur -14.8545 -1.98439 10.5181
rtibia 38.2398
rfoot -13.2149 -10.3358
rtoes 8.80415
lfemur -0.974318 0.861308 -12.4985
ltibia 17.7097
lfoot -13.2496 2.84573
ltoes -36.3221
387
root 1.63313 17.8142 6.19493 -1.53654 -3.06153 357.394
lowerback 15.104 1.37423 -3.41071
upperback 1.86806 1.36311 1.55758
thorax -6.60272 0.770617 3.31164
lowerneck -10.6319 3.0996 0.634405
upperneck 16.6366 4.72358 -3.29972
head 6.93053 2.02637 -0.73784
rclavicle 5.29264e-015 1.44119e-014
rhumerus -29.7388 -18.1307 -74.8396
rradius 35.527
rwrist 2.94321
rhand -7.31486 -38.9552
rfingers 7.12502
rthumb 18.568 -68.089
lclavicle 5.29264e-015 1.44119e-014
lhumerus -43.583 22.6692 66.4554
lradius 47.2458
lwrist 10.6838
lhand -9.43142 -9.9982
lfingers 7.12502
lthumb 16.5311 19.3176
rfemur -14.4722 -2.18891 11.6069
rtibia 40.8803
rfoot -13.6626 -10.3281
rtoes 8.53817
lfemur -1.19173 0.987505 -11.5144
ltibia 17.0959
lfoot -12.6887 2.50108
ltoes -36.5397
388
root 1.61075 17.818 6.12278 -1.7354 -2.90798 358.167
lowerback 14.8322 1.47069 -4.06196
upperback 1.81197 1.37142 1.23377
thorax -6.5202 0.786812 3.33695
lowerneck -10.242 2.92724 0.542241
upperneck 16.4722 4.44908 -3.03813
head 6.79464 1.91861 -0.6708
rclavicle -1.09829e-014 -1.31198e-014
rhumerus -30.2388 -19.1207 -74.2465
rradius 34.7946
rwrist 2.66216
rhand -6.74002 -39.4153
rfingers 7.12502
rthumb 19.1208 -68.4954
lclavicle -1.09829e-014 -1.31198e-014
lhumerus -44.2705 23.1845 65.5906
lradius 47.1103
lwrist 11.3954
lhand -10.0168 -10.0159
lfingers 7.12502
lthumb 15.9675 19.346
rfemur -13.3031 -2.85061 10.8243
rtibia 42.8333
rfoot -13.9917 -9.70606
rtoes 7.32359
lfemur -0.833181 0.916138 -12.4339
ltibia 16.2032
lfoot -12.1665 2.17123
ltoes -36.7818
389
root 1.57492 17.8224 6.03172 -1.70684 -2.78961 358.236
lowerback 14.5711 1.5366 -4.11572
upperback 1.67899 1.45374 1.14619
thorax -6.52444 0.830006 3.25925
lowerneck -9.90838 2.74913 0.456548
upperneck 16.3797 4.183 -2.85366
head 6.69516 1.8062 -0.626781
rclavicle -7.42958e-015 2.78299e-015
rhumerus -30.7346 -19.9994 -73.6377
rradius 34.1232
rwrist 2.06472
rhand -6.46903 -39.6526
rfingers 7.12502
rthumb 19.3814 -68.7067
lclavicle -7.42958e-015 2.78299e-015
lhumerus -44.8668 23.7405 64.8357
lradius 46.9343
lwrist 12.0295
lhand -10.4128 -9.85273
lfingers 7.12502
lthumb 15.5861 19.5393
rfemur -12.3211 -3.04163 11.0169
rtibia 44.4706
rfoot -14.1817 -9.37499
rtoes 6.38959
lfemur -0.949252 0.980699 -12.3029
ltibia 15.6949
lfoot -11.7467 1.7683
ltoes -37.0603
390
root 1.5345 17.8218 5.94278 -1.66246 -2.64639 358.215
lowerback 14.2694 1.59602 -4.02483
upperback 1.59186 1.55424 1.07965
thorax -6.45505 0.876287 3.11962
lowerneck -9.80106 2.58546 0.255695
upperneck 16.4284 3.93281 -2.50274
head 6.67593 1.70344 -0.504811
rclavicle 1.49089e-016 -1.41137e-014
rhumerus -31.0536 -20.989 -73.025
rradius 33.292
rwrist 1.52508
rhand -6.52225 -39.6646
rfingers 7.12502
rthumb 19.3302 -68.7239
lclavicle 1.49089e-016 -1.41137e-014
lhumerus -45.3382 24.4521 64.1562
lradius 46.683
lwrist 12.4241
lhand -10.6519 -9.665
lfingers 7.12502
lthumb 15.3558 19.7448
rfemur -11.1414 -3.04531 11.3306
rtibia 45.6035
rfoot -14.4858 -9.15344
rtoes 4.58439
lfemur -1.15547 1.05348 -12.0432
ltibia 15.3287
lfoot -11.4249 1.32671
ltoes -37.4019
391
root 1.48871 17.8152 5.85241 -1.62758 -2.56233 358.138
lowerback 14.0163 1.68269 -3.84724
upperback 1.51283 1.70357 1.03867
thorax -6.40537 0.944722 2.94862
lowerneck -9.78822 2.39549 -0.0527407
upperneck 16.5613 3.65466 -2.0787
head 6.69797 1.58464 -0.34224
rclavicle -3.03147e-015 1.78906e-015
rhumerus -31.3854 -21.9785 -72.3833
rradius 32.4906
rwrist 1.202
rhand -6.56293 -39.8562
rfingers 7.12502
rthumb 19.2911 -68.9194
lclavicle -3.03147e-015 1.78906e-015
lhumerus -45.7766 25.3083 63.5345
lradius 46.3528
lwrist 12.4508
lhand -10.7996 -9.7104
lfingers 7.12502
lthumb 15.2135 19.7102
rfemur -9.80481 -2.81195 11.7504
rtibia 46.2256
rfoot -14.8739 -8.92964
rtoes 1.8824
lfemur -1.44016 1.1674 -11.6919
ltibia 15.1147
lfoot -11.1661 0.961331
ltoes -37.7992
392
root 1.44164 17.8059 5.75787 -1.5913 -2.52757 358.126
lowerback 13.7797 1.78223 -3.66548
upperback 1.44713 1.86822 0.982292
thorax -6.3497 1.02001 2.75688
lowerneck -9.74452 2.2036 -0.239775
upperneck 16.6666 3.38914 -1.86522
head 6.71397 1.46247 -0.266181
rclavicle 3.90115e-015 -4.57205e-015
rhumerus -31.7641 -22.9428 -71.7197
rradius 31.8209
rwrist 1.27912
rhand -6.16079 -39.8492
rfingers 7.12502
rthumb 19.6778 -68.8732
lclavicle 3.90115e-015 -4.57205e-015
lhumerus -46.1053 26.1836 63.0234
lradius 45.9253
lwrist 12.2997
lhand -10.8675 -9.78473
lfingers 7.12502
lthumb 15.1481 19.6409
rfemur -8.35075 -2.4485 12.1112
rtibia 46.3609
rfoot -15.0876 -8.65307
rtoes 0.562866
lfemur -1.8283 1.23273 -11.4527
ltibia 15.089
lfoot -10.9076 0.770753
ltoes -38.0554
